# xmcd
#
# Track frame offsets: 
#        150
#        9777
#        33807
#        53281
#        69378
#        81591
#        108968
#        119552
#        132100
#        144041
#        159589
#        176952
#
# Disc length: 2623 seconds
#
# Revision: 2
# Processed by: cddbd v1.5.2PL0 Copyright (c) Steve Scherf et al.
# Submitted via: ExactAudioCopy v0.99pb5
#
DISCID=900a3d0c
DTITLE=Zhanna Bichevskaya - Veruyu
DYEAR=2000
DGENRE=Folklore
TTITLE0=Veruyu
TTITLE1=Vsem predatelyam Boga, carya i Rossii
TTITLE2=Svyatoi car'
TTITLE3=Carskim orlam
TTITLE4=Moi narod
TTITLE5=Svyataya Rus'
TTITLE6=Vernopoddanie
TTITLE7=Umirayuschaya
TTITLE8=Svoboda
TTITLE9=Oni proidut
TTITLE10=I Rossiya
TTITLE11=Kolokol
EXTD=
EXTT0=
EXTT1=
EXTT2=
EXTT3=
EXTT4=
EXTT5=
EXTT6=
EXTT7=
EXTT8=
EXTT9=
EXTT10=
EXTT11=
PLAYORDER=
